<svg id="Capa_1" data-name="Capa 1" xmlns="http://www.w3.org/2000/svg" viewBox="0 0 367.94 368.4"><defs><style>.cls-2{fill:#2a65ea}</style></defs><path fill="#cce4ff" d="M360 7.9l-112 352-72.4-167.6L360 7.9z"/><path class="cls-2" d="M5.14 135.39l164.46 63.19 71.06 164.52a8 8 0 007.34 4.82h.4a8 8 0 007.22-5.56l112-352a7.6 7.6 0 00.16-1.11 7.19 7.19 0 00.15-1.1 7.8 7.8 0 00-.3-2.28c0-.17 0-.34-.06-.51s0-.06 0-.09a8.06 8.06 0 00-1.46-2.52 7.5 7.5 0 00-.71-.62 7.67 7.67 0 00-1.18-1c-.11-.06-.24-.08-.35-.14a7.94 7.94 0 00-1-.42 8 8 0 00-1.7-.46A7.3 7.3 0 00360 0a7.87 7.87 0 00-1.88.25c-.22.06-.43 0-.65.08l-352 120a8 8 0 00-.3 15zm241.72 201.72l-61.76-143L342.4 36.82zM330 26.59L173.63 183 31.48 128.37z" transform="translate(0 -.02)"/><path class="cls-2" d="M9.19 367.92a9.2 9.2 0 006.5-2.67l128.62-127.68a9.06 9.06 0 000-12.9 9.22 9.22 0 00-13 0L2.69 352.35a9.06 9.06 0 000 12.9 9.2 9.2 0 006.5 2.67z" transform="translate(0 -.02)"/><path d="M146.35 298.26l-56 56a8 8 0 1011.31 11.31l56-56a8 8 0 00-11.31-11.31z" transform="translate(0 -.02)" stroke="#265fc4" stroke-miterlimit="10" fill="#2a65ea"/><path class="cls-2" d="M8 279.92a8 8 0 005.66-2.34l56-56a8 8 0 00-11.31-11.31l-56 56A8 8 0 008 279.92z" transform="translate(0 -.02)"/></svg>