<svg xmlns="http://www.w3.org/2000/svg" xmlns:xlink="http://www.w3.org/1999/xlink" width="731" height="683" viewBox="0 0 731 683"><defs><linearGradient id="a" x1="0.941" y1="0.067" x2="0.074" y2="0.93" gradientUnits="objectBoundingBox"><stop offset="0" stop-color="#0046d1"/><stop offset="1" stop-color="#afc9ff"/></linearGradient><linearGradient id="b" x1="0.881" y1="0.125" x2="0.139" y2="0.883" xlink:href="#a"/><linearGradient id="c" x1="0.892" y1="0.121" x2="0.125" y2="0.897" xlink:href="#a"/><clipPath id="e"><rect width="731" height="683"/></clipPath></defs><g id="d" clip-path="url(#e)"><rect width="731" height="683" fill="#fff"/><g transform="translate(182 158)"><g transform="translate(-0.001)"><path d="M169.357,202.727,346.379,32.92,247.228,350.444Z" transform="translate(0 -3)" fill="#c8d8ff"/><path d="M171.294,193.83,337.12,23.094,18.155,134.207Z" transform="translate(0 -3)" fill="#fff"/><path d="M367.851,6.944A7.491,7.491,0,0,0,367.6,5.7a8.3,8.3,0,0,0-.528-1.3c-.112-.232-.152-.48-.288-.7a4.915,4.915,0,0,0-.336-.376,8.3,8.3,0,0,0-.9-1.016,7.817,7.817,0,0,0-1.032-.9c-.136-.1-.224-.232-.36-.312-.224-.136-.472-.168-.7-.28A8.32,8.32,0,0,0,362.115.28a8.419,8.419,0,0,0-1.176-.208,8.207,8.207,0,0,0-1.4-.064,7.187,7.187,0,0,0-1.3.216,7.369,7.369,0,0,0-.824.136l-352,120a7.993,7.993,0,0,0-.28,15.032s86.423,25.726,145.3,82.652S240.659,363.1,240.659,363.1A8.011,8.011,0,0,0,248,367.92c.136,0,.264,0,.4-.008a8,8,0,0,0,7.224-5.56l73.417-230.739L367.627,10.352a5.991,5.991,0,0,0,.1-.76,7.559,7.559,0,0,0,.184-1.336A7.969,7.969,0,0,0,367.851,6.944ZM31.475,128.368,330.011,26.592,173.619,182.984ZM246.859,337.112,185.1,194.136,342.4,36.824Z" fill="#0046d1"/><path d="M125.659,242.264a7.991,7.991,0,0,0-11.312,0l-112,112a8,8,0,1,0,11.312,11.312l112-112A7.991,7.991,0,0,0,125.659,242.264Z" fill="url(#a)"/><path d="M146.347,298.264l-56,56a8,8,0,1,0,11.312,11.312l56-56a8,8,0,0,0-11.312-11.312Z" fill="url(#b)"/><path d="M8,279.92a7.978,7.978,0,0,0,5.656-2.344l56-56a8,8,0,0,0-11.312-11.312l-56,56A8,8,0,0,0,8,279.92Z" fill="url(#c)"/></g></g></g></svg>